<?xml version="1.0" standalone="no"?>
<!DOCTYPE svg PUBLIC "-//W3C//DTD SVG 20010904//EN"
 "http://www.w3.org/TR/2001/REC-SVG-20010904/DTD/svg10.dtd">
<svg version="1.0" xmlns="http://www.w3.org/2000/svg"
 width="803.000000pt" height="871.000000pt" viewBox="0 0 803.000000 871.000000"
 preserveAspectRatio="xMidYMid meet">

<g transform="translate(0.000000,871.000000) scale(0.100000,-0.100000)"
fill="#ffffff" stroke="none">
<path d="M255 5933 c-7 -2748 -6 -2831 30 -3026 46 -243 175 -471 357 -626 91
-78 198 -149 503 -333 703 -424 1227 -716 1694 -945 194 -95 396 -198 448
-229 204 -120 449 -308 660 -506 45 -43 88 -78 94 -78 6 0 62 48 123 107 136
132 340 303 462 389 109 76 253 154 429 234 413 185 804 398 1535 833 790 470
902 548 1011 708 87 129 158 307 196 494 16 84 18 200 21 1695 2 883 0 2137
-3 2788 l-7 1182 -3773 0 -3772 0 -8 -2687z m968 2000 c8 -379 25 -1491 33
-2176 l6 -528 72 -36 c256 -127 578 -308 585 -327 5 -12 13 -120 20 -241 7
-121 16 -278 20 -350 4 -71 5 -133 2 -137 -9 -11 -257 127 -362 201 -174 123
-316 275 -674 721 -55 68 -123 149 -152 178 -29 30 -58 71 -65 91 -14 40 -15
56 -10 1819 l2 1082 258 0 259 0 6 -297z m377 275 c0 -23 84 -974 175 -1983
67 -745 81 -924 69 -935 -11 -10 -251 62 -269 81 -9 10 -16 104 -24 344 -10
295 -24 639 -76 1890 -8 198 -16 420 -18 493 l-4 132 74 0 c68 0 73 -1 73 -22z
m665 -1 c8 -13 35 -115 59 -228 25 -112 106 -469 180 -792 75 -323 139 -608
143 -632 7 -51 13 -58 68 -75 123 -39 182 -91 194 -171 8 -46 -6 -1388 -14
-1397 -7 -8 -591 189 -644 218 -11 5 -24 25 -30 42 -12 37 -8 12 -171 1243
-66 501 -143 1074 -170 1275 -27 201 -53 404 -58 453 l-8 87 218 0 c217 0 218
0 233 -23z m653 -749 c-4 -985 2 -975 -163 -267 -53 228 -124 527 -156 664
-33 138 -63 278 -68 313 l-7 62 198 0 198 0 -2 -772z m772 -154 l0 -926 -32 7
c-37 7 -350 90 -413 108 l-40 12 -3 863 -2 862 245 0 245 0 0 -926z m833 534
c72 -419 113 -674 120 -750 5 -57 9 -55 -160 -64 l-123 -7 0 606 0 607 48 0
48 0 67 -392z m691 260 c-7 -73 -37 -347 -65 -609 l-52 -477 -51 -6 c-28 -3
-65 -6 -82 -6 l-32 0 -7 68 c-3 37 -28 229 -55 427 -69 504 -90 672 -90 706
l0 29 223 0 223 0 -12 -132z m532 -440 c-4 -315 -11 -931 -16 -1368 -5 -437
-9 -796 -10 -797 -1 -6 -609 -214 -661 -226 l-26 -7 -12 298 c-7 163 -21 477
-31 697 -11 220 -20 414 -20 432 0 35 4 38 220 130 58 25 110 50 116 56 6 7
21 107 33 222 33 315 110 1023 117 1083 l7 52 145 0 145 0 -7 -572z m727 -450
c3 -1550 6 -1366 -23 -1390 -28 -23 -316 -171 -341 -176 -22 -4 -26 123 -39
1193 -5 457 -13 957 -16 1113 l-7 282 212 0 211 0 3 -1022z m873 1014 c8 -5
14 -303 19 -1082 6 -940 5 -1084 -8 -1146 -15 -69 -50 -151 -87 -204 -21 -30
-262 -505 -405 -800 -114 -233 -143 -271 -227 -293 -69 -19 -539 -117 -557
-117 -21 0 -10 649 11 701 14 31 32 44 151 106 74 38 203 108 286 154 l150 84
1 551 c0 303 3 889 7 1302 l6 752 321 0 c177 0 326 -4 332 -8z m-2723 -1548
l37 -7 0 -81 c0 -44 5 -189 10 -321 12 -299 31 -1147 26 -1153 -10 -9 -273
-72 -303 -72 l-33 0 0 827 0 826 113 -7 c61 -3 129 -9 150 -12z m-1287 -492
c27 -11 119 -50 202 -87 l152 -67 0 -705 0 -705 -42 7 c-41 6 -115 28 -383
111 l-115 35 0 733 c0 403 3 735 6 739 5 5 54 -11 180 -61z m4021 -1939 c-3
-1023 -5 -1166 -20 -1228 -38 -167 -95 -282 -182 -371 -46 -46 -136 -108 -390
-266 -607 -378 -1278 -764 -1595 -920 -476 -233 -553 -273 -665 -343 -66 -41
-126 -75 -132 -75 -10 0 -13 299 -13 1464 l0 1464 53 12 c64 14 309 58 834
150 583 102 1382 262 1503 301 102 33 200 89 255 145 92 95 170 262 250 539
65 224 85 285 96 285 6 0 8 -427 6 -1157z m-1592 825 c-3 -51 -7 -196 -10
-322 -3 -126 -7 -231 -9 -233 -2 -2 -125 -24 -272 -49 -148 -24 -443 -76 -656
-114 -213 -39 -404 -70 -423 -70 l-35 0 0 234 0 234 33 11 c46 15 884 269
1122 340 110 33 212 60 227 61 l27 0 -4 -92z m-4984 -330 c107 -214 185 -331
312 -465 79 -84 231 -202 333 -259 292 -163 863 -315 1934 -514 151 -28 287
-53 303 -56 l27 -6 0 -1194 c0 -974 -2 -1194 -13 -1194 -7 0 -65 30 -128 66
-219 127 -291 165 -597 317 -169 85 -395 203 -502 264 -490 278 -1132 660
-1375 819 -171 112 -252 209 -315 377 -53 142 -53 137 -57 1085 -3 610 -1 882
6 882 6 0 38 -55 72 -122z m1911 -84 c81 -29 315 -117 520 -195 205 -78 397
-150 426 -161 l52 -19 0 -221 0 -220 -62 7 c-35 4 -263 40 -508 80 -245 41
-494 81 -555 90 -123 18 -161 30 -169 52 -3 8 -13 74 -21 146 -8 73 -27 225
-41 339 -14 115 -24 215 -21 223 6 15 47 2 379 -121z"/>
</g>
</svg>
